<svg id="Light" xmlns="http://www.w3.org/2000/svg" viewBox="0 0 24 24"><defs><style>.cls-1{fill:none;stroke:currentColor;stroke-linecap:round;stroke-linejoin:round;}</style></defs><title>coffee-cup-hot</title><path class="cls-1" d="M8,6.157A2,2,0,0,1,8,3.328,2,2,0,0,0,8,.5"/><path class="cls-1" d="M12,6.157a2,2,0,0,1,0-2.829A2,2,0,0,0,12,.5"/><path class="cls-1" d="M16,6.157a2,2,0,0,1,0-2.829A2,2,0,0,0,16,.5"/><ellipse class="cls-1" cx="12" cy="11.542" rx="6.5" ry="3"/><path class="cls-1" d="M18.5,11.542A17.914,17.914,0,0,1,17.335,18.1a1.992,1.992,0,0,1-.53.763A7.121,7.121,0,0,1,12,20.542a7.121,7.121,0,0,1-4.8-1.679,1.981,1.981,0,0,1-.53-.763A17.9,17.9,0,0,1,5.5,11.542"/><path class="cls-1" d="M18.219,14.886C19.933,15.8,21,17.079,21,18.5c0,2.761-4.029,5-9,5s-9-2.239-9-5c0-1.421,1.067-2.7,2.78-3.614"/><path class="cls-1" d="M7.526,13.718C7.24,12.516,9.353,11.5,12,11.5s4.76,1.016,4.474,2.218"/></svg>