<?xml version="1.0" encoding="UTF-8"?>
<svg width="1234px" height="397px" viewBox="0 0 1234 397" version="1.1" xmlns="http://www.w3.org/2000/svg" xmlns:xlink="http://www.w3.org/1999/xlink">
    <!-- Generator: Sketch 62 (91390) - https://sketch.com -->
    <title>justin</title>
    <desc>Created with Sketch.</desc>
    <g id="Page-1" stroke="none" stroke-width="1" fill="none" fill-rule="evenodd">
        <g id="justin" fill="#F2F2F2" fill-rule="nonzero">
            <path d="M83.754703,6.377741 L116.684391,6.377741 L116.801578,124.619928 C116.723453,132.744969 115.180499,140.147239 112.172672,146.82696 C109.164844,153.506681 105.043792,159.268342 99.809391,164.112116 C94.574989,168.95589 88.422707,172.705853 81.352359,175.362116 C74.282011,178.018379 66.684431,179.346491 58.559391,179.346491 C49.965598,179.346491 42.153176,178.252752 35.121891,176.065241 C28.0906054,173.87773 22.0555095,170.616044 17.0164218,166.280085 C11.9773341,161.944126 8.0515922,156.494961 5.2390781,149.932428 C2.426564,143.369896 0.981266,135.67466 0.9031406,126.846491 L33.9500156,126.846491 C34.028141,135.987162 36.059371,142.608189 40.043766,146.709772 C44.028161,150.811355 50.199974,152.862116 58.559391,152.862116 C62.309409,152.862116 65.746875,152.139467 68.871891,150.694147 C71.996906,149.248827 74.65313,147.276191 76.840641,144.776178 C79.028152,142.276166 80.727353,139.287915 81.938297,135.811335 C83.14924,132.334755 83.754703,128.604323 83.754703,124.619928 L83.754703,6.377741 Z M229.301578,159.190241 C225.004682,165.518398 219.828952,170.479285 213.774234,174.073053 C207.719517,177.666821 201.098489,179.463678 193.910953,179.463678 C187.34842,179.463678 181.332855,178.448064 175.864078,176.416803 C170.395301,174.385543 165.707848,171.162919 161.801578,166.748835 C157.895309,162.33475 154.867995,156.709806 152.719547,149.873835 C150.571099,143.037863 149.496891,134.815289 149.496891,125.205866 L149.496891,50.205866 L182.075016,50.205866 L182.075016,125.440241 C182.075016,130.596517 182.446106,134.932411 183.188297,138.448053 C183.930488,141.963696 185.121882,144.795699 186.762516,146.944147 C188.403149,149.092595 190.551565,150.635549 193.207828,151.573053 C195.864091,152.510558 199.106246,152.979303 202.934391,152.979303 C209.418798,152.979303 214.692183,151.748847 218.754703,149.287897 C222.817223,146.826947 225.90313,143.448075 228.012516,139.151178 L228.012516,50.205866 L260.707828,50.205866 L260.707828,177.002741 L231.176578,177.002741 L229.301578,159.190241 Z M374.262516,142.198053 C374.262516,140.244919 373.813301,138.526186 372.914859,137.041803 C372.016417,135.557421 370.414871,134.170716 368.110172,132.881647 C365.805473,131.592578 362.739097,130.401184 358.910953,129.307428 C355.082809,128.213673 350.239107,127.119934 344.379703,126.026178 C336.957791,124.541796 330.180515,122.686346 324.047672,120.459772 C317.914829,118.233199 312.660975,115.537913 308.285953,112.373835 C303.910931,109.209756 300.492997,105.557449 298.032047,101.416803 C295.571097,97.276158 294.340641,92.51058 294.340641,87.119928 C294.340641,81.885527 295.590628,76.885577 298.090641,72.119928 C300.590653,67.35428 304.184367,63.174634 308.871891,59.580866 C313.559414,55.987098 319.262482,53.135564 325.981266,51.026178 C332.700049,48.916793 340.278098,47.862116 348.715641,47.862116 C357.54381,47.862116 365.473418,48.897262 372.504703,50.967585 C379.535988,53.037908 385.49296,55.889442 390.375797,59.522272 C395.258634,63.155103 398.989065,67.471466 401.567203,72.471491 C404.145341,77.471516 405.434391,82.901149 405.434391,88.760553 L372.856266,88.760553 C372.856266,83.838654 370.864098,79.717601 366.879703,76.397272 C362.895308,73.076943 356.840681,71.416803 348.715641,71.416803 C341.137478,71.416803 335.414879,72.783977 331.547672,75.518366 C327.680465,78.252755 325.746891,81.612096 325.746891,85.596491 C325.746891,87.4715 326.137512,89.209764 326.918766,90.811335 C327.700019,92.412905 329.086724,93.858203 331.078922,95.147272 C333.071119,96.436341 335.785936,97.608204 339.223453,98.662897 C342.66097,99.71759 347.035927,100.63555 352.348453,101.416803 C360.004741,102.66681 367.114045,104.268356 373.676578,106.221491 C380.239111,108.174626 385.903117,110.694132 390.668766,113.780085 C395.434414,116.866038 399.164846,120.616 401.860172,125.030085 C404.555498,129.444169 405.903141,134.698023 405.903141,140.791803 C405.903141,146.416832 404.555498,151.592561 401.860172,156.319147 C399.164846,161.045733 395.336759,165.127724 390.375797,168.565241 C385.414835,172.002758 379.418801,174.678513 372.387516,176.592585 C365.35623,178.506657 357.504746,179.463678 348.832828,179.463678 C339.30153,179.463678 330.883646,178.213691 323.578922,175.713678 C316.274198,173.213666 310.160978,169.95198 305.239078,165.928522 C300.317178,161.905065 296.586747,157.334798 294.047672,152.217585 C291.508597,147.100372 290.239078,141.963704 290.239078,136.807428 L321.293766,136.807428 C321.528142,140.244946 322.465632,143.194135 324.106266,145.655085 C325.746899,148.116034 327.856253,150.108202 330.434391,151.631647 C333.012528,153.155092 335.961718,154.268362 339.282047,154.971491 C342.602376,155.674619 346.020311,156.026178 349.535953,156.026178 C357.582868,156.026178 363.715619,154.737129 367.934391,152.158991 C372.153162,149.580853 374.262516,146.260574 374.262516,142.198053 Z M496.254703,19.151178 L496.254703,50.205866 L543.598453,50.205866 L543.598453,74.229303 L496.254703,74.229303 L496.254703,128.721491 C496.254703,133.330889 496.782042,137.178507 497.836734,140.26446 C498.891427,143.350413 500.395318,145.811326 502.348453,147.647272 C504.301588,149.483219 506.664845,150.7918 509.438297,151.573053 C512.211748,152.354307 515.317186,152.744928 518.754703,152.744928 C521.254716,152.744928 523.813284,152.627742 526.430484,152.393366 C529.047685,152.15899 531.54766,151.866024 533.930484,151.51446 C536.313309,151.162895 538.539849,150.791805 540.610172,150.401178 C542.680495,150.010551 544.457821,149.61993 545.942203,149.229303 L549.106266,171.612116 C546.840629,172.940248 544.184406,174.09258 541.137516,175.069147 C538.090625,176.045715 534.84847,176.846488 531.410953,177.471491 C527.973436,178.096494 524.399253,178.58477 520.688297,178.936335 C516.977341,179.287899 513.325034,179.463678 509.731266,179.463678 C502.778106,179.463678 496.469575,178.545719 490.805484,176.709772 C485.141394,174.873826 480.297692,172.022292 476.274234,168.155085 C472.250777,164.287878 469.145339,159.366052 466.957828,153.38946 C464.770317,147.412867 463.676578,140.24497 463.676578,131.885553 L463.676578,74.229303 L434.731266,74.229303 L434.731266,50.205866 L463.676578,50.205866 L463.676578,19.151178 L496.254703,19.151178 Z M589.184391,50.205866 L658.207828,50.205866 L658.207828,150.518366 L692.543766,150.518366 L692.543766,177.002741 L589.184391,177.002741 L589.184391,150.518366 L625.278141,150.518366 L625.278141,76.807428 L589.184391,76.807428 L589.184391,50.205866 Z M622.934391,17.744928 C622.934391,15.244916 623.383605,12.92072 624.282047,10.772272 C625.180489,8.623824 626.450007,6.787905 628.090641,5.26446 C629.731274,3.741015 631.70391,2.54962 634.008609,1.690241 C636.313308,0.830862 638.871877,0.401178 641.684391,0.401178 C647.465669,0.401178 652.055467,2.022256 655.453922,5.26446 C658.852376,8.506663 660.551578,12.666778 660.551578,17.744928 C660.551578,22.823079 658.852376,26.983193 655.453922,30.225397 C652.055467,33.467601 647.465669,35.088678 641.684391,35.088678 C638.871877,35.088678 636.313308,34.658995 634.008609,33.799616 C631.70391,32.940237 629.731274,31.748842 628.090641,30.225397 C626.450007,28.701952 625.180489,26.866033 624.282047,24.717585 C623.383605,22.569136 622.934391,20.244941 622.934391,17.744928 Z M754.067203,50.205866 L756.059391,67.783991 C760.590663,61.455834 766.098421,56.55354 772.582828,53.07696 C779.067236,49.60038 786.254664,47.862116 794.145328,47.862116 C800.55161,47.862116 806.410927,48.799607 811.723453,50.674616 C817.03598,52.549625 821.625778,55.537877 825.492984,59.63946 C829.360191,63.741043 832.367974,69.014427 834.516422,75.459772 C836.66487,81.905117 837.739078,89.73707 837.739078,98.955866 L837.739078,177.002741 L805.160953,177.002741 L805.160953,99.424616 C805.160953,94.424591 804.594553,90.303538 803.461734,87.061335 C802.328916,83.819131 800.707839,81.260563 798.598453,79.385553 C796.489068,77.510544 793.95003,76.201963 790.981266,75.459772 C788.012501,74.717581 784.653159,74.346491 780.903141,74.346491 C775.356238,74.346491 770.629723,75.459761 766.723453,77.686335 C762.817184,79.912908 759.653153,82.979284 757.231266,86.885553 L757.231266,177.002741 L724.535953,177.002741 L724.535953,50.205866 L754.067203,50.205866 Z M335.754703,223.377741 L368.684391,223.377741 L368.801578,341.619928 C368.723453,349.744969 367.180499,357.147239 364.172672,363.82696 C361.164844,370.506681 357.043792,376.268342 351.809391,381.112116 C346.574989,385.95589 340.422707,389.705853 333.352359,392.362116 C326.282011,395.018379 318.684431,396.346491 310.559391,396.346491 C301.965598,396.346491 294.153176,395.252752 287.121891,393.065241 C280.090605,390.87773 274.05551,387.616044 269.016422,383.280085 C263.977334,378.944126 260.051592,373.494961 257.239078,366.932428 C254.426564,360.369896 252.981266,352.67466 252.903141,343.846491 L285.950016,343.846491 C286.028141,352.987162 288.059371,359.608189 292.043766,363.709772 C296.028161,367.811355 302.199974,369.862116 310.559391,369.862116 C314.309409,369.862116 317.746875,369.139467 320.871891,367.694147 C323.996906,366.248827 326.65313,364.276191 328.840641,361.776178 C331.028152,359.276166 332.727353,356.287915 333.938297,352.811335 C335.14924,349.334755 335.754703,345.604323 335.754703,341.619928 L335.754703,223.377741 Z M479.660953,394.002741 C478.879699,392.440233 478.215643,390.643376 477.668766,388.612116 C477.121888,386.580856 476.653143,384.43244 476.262516,382.166803 C474.465632,384.119938 472.39534,385.955857 470.051578,387.674616 C467.707816,389.393375 465.110186,390.897266 462.258609,392.186335 C459.407033,393.475404 456.262533,394.491018 452.825016,395.23321 C449.387498,395.975401 445.676598,396.346491 441.692203,396.346491 C435.207796,396.346491 429.250824,395.409 423.821109,393.533991 C418.391395,391.658982 413.723473,389.04182 409.817203,385.682428 C405.910934,382.323037 402.864089,378.31917 400.676578,373.67071 C398.489067,369.022249 397.395328,363.963706 397.395328,358.494928 C397.395328,345.135487 402.375747,334.803559 412.336734,327.498835 C422.297722,320.194111 437.160854,316.541803 456.926578,316.541803 L475.090641,316.541803 L475.090641,309.041803 C475.090641,302.948023 473.098473,298.123852 469.114078,294.569147 C465.129683,291.014442 459.387553,289.237116 451.887516,289.237116 C445.246857,289.237116 440.403156,290.662883 437.356266,293.51446 C434.309375,296.366036 432.785953,300.174592 432.785953,304.940241 L400.207828,304.940241 C400.207828,299.549589 401.399222,294.432453 403.782047,289.588678 C406.164871,284.744904 409.641399,280.487134 414.211734,276.815241 C418.78207,273.143348 424.367951,270.23322 430.969547,268.084772 C437.571142,265.936324 445.129661,264.862116 453.645328,264.862116 C461.301616,264.862116 468.430451,265.799607 475.032047,267.674616 C481.633642,269.549625 487.356241,272.323035 492.200016,275.994928 C497.04379,279.666822 500.832814,284.295682 503.567203,289.881647 C506.301592,295.467613 507.668766,301.932392 507.668766,309.276178 L507.668766,363.651178 C507.668766,370.448087 508.098449,376.073031 508.957828,380.526178 C509.817207,384.979326 511.067195,388.807412 512.707828,392.010553 L512.707828,394.002741 L479.660953,394.002741 Z M448.606266,371.151178 C451.887532,371.151178 454.934377,370.760557 457.746891,369.979303 C460.559405,369.19805 463.098442,368.182435 465.364078,366.932428 C467.629714,365.682422 469.58282,364.256655 471.223453,362.655085 C472.864086,361.053514 474.153136,359.432437 475.090641,357.791803 L475.090641,335.994928 L458.450016,335.994928 C453.371865,335.994928 449.035971,336.483205 445.442203,337.459772 C441.848435,338.43634 438.918777,339.803513 436.653141,341.561335 C434.387504,343.319156 432.707834,345.42851 431.614078,347.88946 C430.520323,350.350409 429.973453,353.026164 429.973453,355.916803 C429.973453,360.291825 431.516406,363.924601 434.602359,366.815241 C437.688312,369.70588 442.356234,371.151178 448.606266,371.151178 Z M600.598453,370.330866 C603.801594,370.330866 606.848439,369.862116 609.739078,368.924616 C612.629718,367.987111 615.168755,366.659 617.356266,364.940241 C619.543777,363.221482 621.242978,361.151191 622.453922,358.729303 C623.664865,356.307416 624.192204,353.612131 624.035953,350.643366 L654.739078,350.643366 C654.895329,357.205899 653.547686,363.299588 650.696109,368.924616 C647.844533,374.549644 643.957853,379.393346 639.035953,383.455866 C634.114053,387.518386 628.391454,390.701948 621.867984,393.006647 C615.344514,395.311346 608.450052,396.463678 601.184391,396.463678 C591.340591,396.463678 582.707865,394.803539 575.285953,391.48321 C567.864041,388.162881 561.672697,383.612145 556.711734,377.830866 C551.750772,372.049587 548.00081,365.272311 545.461734,357.498835 C542.922659,349.725358 541.653141,341.385598 541.653141,332.479303 L541.653141,328.963678 C541.653141,320.057384 542.903128,311.717624 545.403141,303.944147 C547.903153,296.170671 551.653116,289.393395 556.653141,283.612116 C561.653166,277.830837 567.84451,273.26057 575.227359,269.901178 C582.610209,266.541787 591.184342,264.862116 600.950016,264.862116 C608.762555,264.862116 615.989045,266.033979 622.629703,268.377741 C629.270361,270.721503 634.99296,274.022251 639.797672,278.280085 C644.602383,282.537918 648.332815,287.694117 650.989078,293.748835 C653.645341,299.803552 654.895329,306.580828 654.739078,314.080866 L624.035953,314.080866 C624.192204,310.95585 623.723459,307.98713 622.629703,305.174616 C621.535948,302.362102 619.934401,299.940251 617.825016,297.908991 C615.71563,295.877731 613.176593,294.256653 610.207828,293.04571 C607.239063,291.834766 603.996908,291.229303 600.481266,291.229303 C595.32499,291.229303 591.06722,292.28398 587.707828,294.393366 C584.348436,296.502751 581.672682,299.315223 579.680484,302.830866 C577.688287,306.346509 576.282051,310.369906 575.461734,314.901178 C574.641418,319.432451 574.231266,324.119904 574.231266,328.963678 L574.231266,332.479303 C574.231266,337.401203 574.621887,342.147249 575.403141,346.717585 C576.184394,351.28792 577.571099,355.311317 579.563297,358.787897 C581.555494,362.264477 584.25078,365.057418 587.649234,367.166803 C591.047689,369.276189 595.364052,370.330866 600.598453,370.330866 Z M736.184391,341.619928 L721.418766,355.330866 L721.418766,394.002741 L688.840641,394.002741 L688.840641,214.002741 L721.418766,214.002741 L721.418766,316.893366 L731.262516,305.643366 L766.301578,267.205866 L805.442203,267.205866 L757.629703,320.057428 L812.121891,394.002741 L772.160953,394.002741 L736.184391,341.619928 Z M914.309391,359.198053 C914.309391,357.244919 913.860176,355.526186 912.961734,354.041803 C912.063292,352.557421 910.461746,351.170716 908.157047,349.881647 C905.852348,348.592578 902.785972,347.401184 898.957828,346.307428 C895.129684,345.213673 890.285982,344.119934 884.426578,343.026178 C877.004666,341.541796 870.22739,339.686346 864.094547,337.459772 C857.961704,335.233199 852.70785,332.537913 848.332828,329.373835 C843.957806,326.209756 840.539872,322.557449 838.078922,318.416803 C835.617972,314.276158 834.387516,309.51058 834.387516,304.119928 C834.387516,298.885527 835.637503,293.885577 838.137516,289.119928 C840.637528,284.35428 844.231242,280.174634 848.918766,276.580866 C853.606289,272.987098 859.309357,270.135564 866.028141,268.026178 C872.746924,265.916793 880.324973,264.862116 888.762516,264.862116 C897.590685,264.862116 905.520293,265.897262 912.551578,267.967585 C919.582863,270.037908 925.539835,272.889442 930.422672,276.522272 C935.30551,280.155103 939.03594,284.471466 941.61408,289.471491 C944.19222,294.471516 945.48127,299.901149 945.48127,305.760553 L912.903141,305.760553 C912.903141,300.838654 910.910973,296.717601 906.926578,293.397272 C902.942183,290.076943 896.887556,288.416803 888.762516,288.416803 C881.184353,288.416803 875.461754,289.783977 871.594547,292.518366 C867.72734,295.252755 865.793766,298.612096 865.793766,302.596491 C865.793766,304.4715 866.184387,306.209764 866.965641,307.811335 C867.746894,309.412905 869.133599,310.858203 871.125797,312.147272 C873.117994,313.436341 875.832811,314.608204 879.270328,315.662897 C882.707845,316.71759 887.082802,317.63555 892.395328,318.416803 C900.051616,319.66681 907.16092,321.268356 913.723453,323.221491 C920.285986,325.174626 925.949992,327.694132 930.715641,330.780085 C935.48129,333.866038 939.21172,337.616 941.90705,342.030085 C944.60237,346.444169 945.95002,351.698023 945.95002,357.791803 C945.95002,363.416832 944.60237,368.592561 941.90705,373.319147 C939.21172,378.045733 935.38363,382.127724 930.422672,385.565241 C925.46171,389.002758 919.465676,391.678513 912.434391,393.592585 C905.403105,395.506657 897.551621,396.463678 888.879703,396.463678 C879.348405,396.463678 870.930521,395.213691 863.625797,392.713678 C856.321073,390.213666 850.207853,386.95198 845.285953,382.928522 C840.364053,378.905065 836.633622,374.334798 834.094547,369.217585 C831.555472,364.100372 830.285953,358.963704 830.285953,353.807428 L861.340641,353.807428 C861.575017,357.244946 862.512507,360.194135 864.153141,362.655085 C865.793774,365.116034 867.903128,367.108202 870.481266,368.631647 C873.059403,370.155092 876.008593,371.268362 879.328922,371.971491 C882.649251,372.674619 886.067186,373.026178 889.582828,373.026178 C897.629743,373.026178 903.762494,371.737129 907.981266,369.158991 C912.200037,366.580853 914.309391,363.260574 914.309391,359.198053 Z M972.08283,329.432428 C972.08283,320.213632 973.41094,311.678561 976.0672,303.82696 C978.72347,295.975358 982.61015,289.15902 987.72736,283.377741 C992.84457,277.596462 999.09451,273.065257 1006.47736,269.783991 C1013.86021,266.502725 1022.31716,264.862116 1031.84845,264.862116 C1041.37975,264.862116 1049.85623,266.502725 1057.27814,269.783991 C1064.70005,273.065257 1070.96952,277.596462 1076.08673,283.377741 C1081.20395,289.15902 1085.09063,295.975358 1087.74689,303.82696 C1090.40315,311.678561 1091.73127,320.213632 1091.73127,329.432428 L1091.73127,331.893366 C1091.73127,341.190287 1090.40315,349.76442 1087.74689,357.616022 C1085.09063,365.467624 1081.22348,372.283962 1076.14533,378.065241 C1071.06718,383.84652 1064.81724,388.358193 1057.39533,391.600397 C1049.97342,394.842601 1041.536,396.463678 1032.08283,396.463678 C1022.55153,396.463678 1014.05552,394.842601 1006.59455,391.600397 C999.13357,388.358193 992.84457,383.84652 987.72736,378.065241 C982.61015,372.283962 978.72347,365.467624 976.0672,357.616022 C973.41094,349.76442 972.08283,341.190287 972.08283,331.893366 L972.08283,329.432428 Z M1004.66095,331.893366 C1004.66095,337.205892 1005.16876,342.186311 1006.18439,346.834772 C1007.20002,351.483233 1008.80157,355.545692 1010.98908,359.022272 C1013.17659,362.498852 1016.00859,365.252731 1019.48517,367.283991 C1022.96175,369.315251 1027.16093,370.330866 1032.08283,370.330866 C1036.84848,370.330866 1040.95,369.315251 1044.38752,367.283991 C1047.82503,365.252731 1050.61797,362.498852 1052.76642,359.022272 C1054.91487,355.545692 1056.49689,351.483233 1057.51252,346.834772 C1058.52815,342.186311 1059.03595,337.205892 1059.03595,331.893366 L1059.03595,329.432428 C1059.03595,324.276153 1058.52815,319.393389 1057.51252,314.783991 C1056.49689,310.174593 1054.91487,306.112134 1052.76642,302.596491 C1050.61797,299.080848 1047.82503,296.307439 1044.38752,294.276178 C1040.95,292.244918 1036.77035,291.229303 1031.84845,291.229303 C1027.00468,291.229303 1022.8641,292.244918 1019.42658,294.276178 C1015.98906,296.307439 1013.17659,299.080848 1010.98908,302.596491 C1008.80157,306.112134 1007.20002,310.174593 1006.18439,314.783991 C1005.16876,319.393389 1004.66095,324.276153 1004.66095,329.432428 L1004.66095,331.893366 Z M1150.09064,267.205866 L1152.08283,284.783991 C1156.6141,278.455834 1162.12186,273.55354 1168.60627,270.07696 C1175.09067,266.60038 1182.2781,264.862116 1190.16877,264.862116 C1196.57505,264.862116 1202.43436,265.799607 1207.74689,267.674616 C1213.05942,269.549625 1217.64922,272.537877 1221.51642,276.63946 C1225.38363,280.741043 1228.39141,286.014427 1230.53986,292.459772 C1232.68831,298.905117 1233.76252,306.73707 1233.76252,315.955866 L1233.76252,394.002741 L1201.18439,394.002741 L1201.18439,316.424616 C1201.18439,311.424591 1200.61799,307.303538 1199.48517,304.061335 C1198.35235,300.819131 1196.73128,298.260563 1194.62189,296.385553 C1192.51251,294.510544 1189.97347,293.201963 1187.0047,292.459772 C1184.03594,291.717581 1180.6766,291.346491 1176.92658,291.346491 C1171.37968,291.346491 1166.65316,292.459761 1162.74689,294.686335 C1158.84062,296.912908 1155.67659,299.979284 1153.2547,303.885553 L1153.2547,394.002741 L1120.55939,394.002741 L1120.55939,267.205866 L1150.09064,267.205866 Z" id="Justin-Jackson"></path>
        </g>
    </g>
</svg>