<?xml version="1.0" encoding="UTF-8"?>
<svg width="1234px" height="397px" viewBox="0 0 1234 397" version="1.1" xmlns="http://www.w3.org/2000/svg" xmlns:xlink="http://www.w3.org/1999/xlink">
    <!-- Generator: Sketch 52.1 (67048) - http://www.bohemiancoding.com/sketch -->
    <title>Justin Jackson</title>
    <desc>Created with Sketch.</desc>
    <g id="Page-1" stroke="none" stroke-width="1" fill="none" fill-rule="evenodd">
        <g id="Desktop-HD" transform="translate(-65.000000, -155.000000)" fill="#FFFACF">
            <path d="M148.754703,161.377741 L181.684391,161.377741 L181.801578,279.619928 C181.723453,287.744969 180.180499,295.147239 177.172672,301.82696 C174.164844,308.506681 170.043792,314.268342 164.809391,319.112116 C159.574989,323.95589 153.422707,327.705853 146.352359,330.362116 C139.282011,333.018379 131.684431,334.346491 123.559391,334.346491 C114.965598,334.346491 107.153176,333.252752 100.121891,331.065241 C93.0906054,328.87773 87.0555095,325.616044 82.0164218,321.280085 C76.9773341,316.944126 73.0515922,311.494961 70.2390781,304.932428 C67.426564,298.369896 65.981266,290.67466 65.9031406,281.846491 L98.9500156,281.846491 C99.028141,290.987162 101.059371,297.608189 105.043766,301.709772 C109.028161,305.811355 115.199974,307.862116 123.559391,307.862116 C127.309409,307.862116 130.746875,307.139467 133.871891,305.694147 C136.996906,304.248827 139.65313,302.276191 141.840641,299.776178 C144.028152,297.276166 145.727353,294.287915 146.938297,290.811335 C148.14924,287.334755 148.754703,283.604323 148.754703,279.619928 L148.754703,161.377741 Z M294.301578,314.190241 C290.004682,320.518398 284.828952,325.479285 278.774234,329.073053 C272.719517,332.666821 266.098489,334.463678 258.910953,334.463678 C252.34842,334.463678 246.332855,333.448064 240.864078,331.416803 C235.395301,329.385543 230.707848,326.162919 226.801578,321.748835 C222.895309,317.33475 219.867995,311.709806 217.719547,304.873835 C215.571099,298.037863 214.496891,289.815289 214.496891,280.205866 L214.496891,205.205866 L247.075016,205.205866 L247.075016,280.440241 C247.075016,285.596517 247.446106,289.932411 248.188297,293.448053 C248.930488,296.963696 250.121882,299.795699 251.762516,301.944147 C253.403149,304.092595 255.551565,305.635549 258.207828,306.573053 C260.864091,307.510558 264.106246,307.979303 267.934391,307.979303 C274.418798,307.979303 279.692183,306.748847 283.754703,304.287897 C287.817223,301.826947 290.90313,298.448075 293.012516,294.151178 L293.012516,205.205866 L325.707828,205.205866 L325.707828,332.002741 L296.176578,332.002741 L294.301578,314.190241 Z M439.262516,297.198053 C439.262516,295.244919 438.813301,293.526186 437.914859,292.041803 C437.016417,290.557421 435.414871,289.170716 433.110172,287.881647 C430.805473,286.592578 427.739097,285.401184 423.910953,284.307428 C420.082809,283.213673 415.239107,282.119934 409.379703,281.026178 C401.957791,279.541796 395.180515,277.686346 389.047672,275.459772 C382.914829,273.233199 377.660975,270.537913 373.285953,267.373835 C368.910931,264.209756 365.492997,260.557449 363.032047,256.416803 C360.571097,252.276158 359.340641,247.51058 359.340641,242.119928 C359.340641,236.885527 360.590628,231.885577 363.090641,227.119928 C365.590653,222.35428 369.184367,218.174634 373.871891,214.580866 C378.559414,210.987098 384.262482,208.135564 390.981266,206.026178 C397.700049,203.916793 405.278098,202.862116 413.715641,202.862116 C422.54381,202.862116 430.473418,203.897262 437.504703,205.967585 C444.535988,208.037908 450.49296,210.889442 455.375797,214.522272 C460.258634,218.155103 463.989065,222.471466 466.567203,227.471491 C469.145341,232.471516 470.434391,237.901149 470.434391,243.760553 L437.856266,243.760553 C437.856266,238.838654 435.864098,234.717601 431.879703,231.397272 C427.895308,228.076943 421.840681,226.416803 413.715641,226.416803 C406.137478,226.416803 400.414879,227.783977 396.547672,230.518366 C392.680465,233.252755 390.746891,236.612096 390.746891,240.596491 C390.746891,242.4715 391.137512,244.209764 391.918766,245.811335 C392.700019,247.412905 394.086724,248.858203 396.078922,250.147272 C398.071119,251.436341 400.785936,252.608204 404.223453,253.662897 C407.66097,254.71759 412.035927,255.63555 417.348453,256.416803 C425.004741,257.66681 432.114045,259.268356 438.676578,261.221491 C445.239111,263.174626 450.903117,265.694132 455.668766,268.780085 C460.434414,271.866038 464.164846,275.616 466.860172,280.030085 C469.555498,284.444169 470.903141,289.698023 470.903141,295.791803 C470.903141,301.416832 469.555498,306.592561 466.860172,311.319147 C464.164846,316.045733 460.336759,320.127724 455.375797,323.565241 C450.414835,327.002758 444.418801,329.678513 437.387516,331.592585 C430.35623,333.506657 422.504746,334.463678 413.832828,334.463678 C404.30153,334.463678 395.883646,333.213691 388.578922,330.713678 C381.274198,328.213666 375.160978,324.95198 370.239078,320.928522 C365.317178,316.905065 361.586747,312.334798 359.047672,307.217585 C356.508597,302.100372 355.239078,296.963704 355.239078,291.807428 L386.293766,291.807428 C386.528142,295.244946 387.465632,298.194135 389.106266,300.655085 C390.746899,303.116034 392.856253,305.108202 395.434391,306.631647 C398.012528,308.155092 400.961718,309.268362 404.282047,309.971491 C407.602376,310.674619 411.020311,311.026178 414.535953,311.026178 C422.582868,311.026178 428.715619,309.737129 432.934391,307.158991 C437.153162,304.580853 439.262516,301.260574 439.262516,297.198053 Z M561.254703,174.151178 L561.254703,205.205866 L608.598453,205.205866 L608.598453,229.229303 L561.254703,229.229303 L561.254703,283.721491 C561.254703,288.330889 561.782042,292.178507 562.836734,295.26446 C563.891427,298.350413 565.395318,300.811326 567.348453,302.647272 C569.301588,304.483219 571.664845,305.7918 574.438297,306.573053 C577.211748,307.354307 580.317186,307.744928 583.754703,307.744928 C586.254716,307.744928 588.813284,307.627742 591.430484,307.393366 C594.047685,307.15899 596.54766,306.866024 598.930484,306.51446 C601.313309,306.162895 603.539849,305.791805 605.610172,305.401178 C607.680495,305.010551 609.457821,304.61993 610.942203,304.229303 L614.106266,326.612116 C611.840629,327.940248 609.184406,329.09258 606.137516,330.069147 C603.090625,331.045715 599.84847,331.846488 596.410953,332.471491 C592.973436,333.096494 589.399253,333.58477 585.688297,333.936335 C581.977341,334.287899 578.325034,334.463678 574.731266,334.463678 C567.778106,334.463678 561.469575,333.545719 555.805484,331.709772 C550.141394,329.873826 545.297692,327.022292 541.274234,323.155085 C537.250777,319.287878 534.145339,314.366052 531.957828,308.38946 C529.770317,302.412867 528.676578,295.24497 528.676578,286.885553 L528.676578,229.229303 L499.731266,229.229303 L499.731266,205.205866 L528.676578,205.205866 L528.676578,174.151178 L561.254703,174.151178 Z M654.184391,205.205866 L723.207828,205.205866 L723.207828,305.518366 L757.543766,305.518366 L757.543766,332.002741 L654.184391,332.002741 L654.184391,305.518366 L690.278141,305.518366 L690.278141,231.807428 L654.184391,231.807428 L654.184391,205.205866 Z M687.934391,172.744928 C687.934391,170.244916 688.383605,167.92072 689.282047,165.772272 C690.180489,163.623824 691.450007,161.787905 693.090641,160.26446 C694.731274,158.741015 696.70391,157.54962 699.008609,156.690241 C701.313308,155.830862 703.871877,155.401178 706.684391,155.401178 C712.465669,155.401178 717.055467,157.022256 720.453922,160.26446 C723.852376,163.506663 725.551578,167.666778 725.551578,172.744928 C725.551578,177.823079 723.852376,181.983193 720.453922,185.225397 C717.055467,188.467601 712.465669,190.088678 706.684391,190.088678 C703.871877,190.088678 701.313308,189.658995 699.008609,188.799616 C696.70391,187.940237 694.731274,186.748842 693.090641,185.225397 C691.450007,183.701952 690.180489,181.866033 689.282047,179.717585 C688.383605,177.569136 687.934391,175.244941 687.934391,172.744928 Z M819.067203,205.205866 L821.059391,222.783991 C825.590663,216.455834 831.098421,211.55354 837.582828,208.07696 C844.067236,204.60038 851.254664,202.862116 859.145328,202.862116 C865.55161,202.862116 871.410927,203.799607 876.723453,205.674616 C882.03598,207.549625 886.625778,210.537877 890.492984,214.63946 C894.360191,218.741043 897.367974,224.014427 899.516422,230.459772 C901.66487,236.905117 902.739078,244.73707 902.739078,253.955866 L902.739078,332.002741 L870.160953,332.002741 L870.160953,254.424616 C870.160953,249.424591 869.594553,245.303538 868.461734,242.061335 C867.328916,238.819131 865.707839,236.260563 863.598453,234.385553 C861.489068,232.510544 858.95003,231.201963 855.981266,230.459772 C853.012501,229.717581 849.653159,229.346491 845.903141,229.346491 C840.356238,229.346491 835.629723,230.459761 831.723453,232.686335 C827.817184,234.912908 824.653153,237.979284 822.231266,241.885553 L822.231266,332.002741 L789.535953,332.002741 L789.535953,205.205866 L819.067203,205.205866 Z M400.754703,378.377741 L433.684391,378.377741 L433.801578,496.619928 C433.723453,504.744969 432.180499,512.147239 429.172672,518.82696 C426.164844,525.506681 422.043792,531.268342 416.809391,536.112116 C411.574989,540.95589 405.422707,544.705853 398.352359,547.362116 C391.282011,550.018379 383.684431,551.346491 375.559391,551.346491 C366.965598,551.346491 359.153176,550.252752 352.121891,548.065241 C345.090605,545.87773 339.05551,542.616044 334.016422,538.280085 C328.977334,533.944126 325.051592,528.494961 322.239078,521.932428 C319.426564,515.369896 317.981266,507.67466 317.903141,498.846491 L350.950016,498.846491 C351.028141,507.987162 353.059371,514.608189 357.043766,518.709772 C361.028161,522.811355 367.199974,524.862116 375.559391,524.862116 C379.309409,524.862116 382.746875,524.139467 385.871891,522.694147 C388.996906,521.248827 391.65313,519.276191 393.840641,516.776178 C396.028152,514.276166 397.727353,511.287915 398.938297,507.811335 C400.14924,504.334755 400.754703,500.604323 400.754703,496.619928 L400.754703,378.377741 Z M544.660953,549.002741 C543.879699,547.440233 543.215643,545.643376 542.668766,543.612116 C542.121888,541.580856 541.653143,539.43244 541.262516,537.166803 C539.465632,539.119938 537.39534,540.955857 535.051578,542.674616 C532.707816,544.393375 530.110186,545.897266 527.258609,547.186335 C524.407033,548.475404 521.262533,549.491018 517.825016,550.23321 C514.387498,550.975401 510.676598,551.346491 506.692203,551.346491 C500.207796,551.346491 494.250824,550.409 488.821109,548.533991 C483.391395,546.658982 478.723473,544.04182 474.817203,540.682428 C470.910934,537.323037 467.864089,533.31917 465.676578,528.67071 C463.489067,524.022249 462.395328,518.963706 462.395328,513.494928 C462.395328,500.135487 467.375747,489.803559 477.336734,482.498835 C487.297722,475.194111 502.160854,471.541803 521.926578,471.541803 L540.090641,471.541803 L540.090641,464.041803 C540.090641,457.948023 538.098473,453.123852 534.114078,449.569147 C530.129683,446.014442 524.387553,444.237116 516.887516,444.237116 C510.246857,444.237116 505.403156,445.662883 502.356266,448.51446 C499.309375,451.366036 497.785953,455.174592 497.785953,459.940241 L465.207828,459.940241 C465.207828,454.549589 466.399222,449.432453 468.782047,444.588678 C471.164871,439.744904 474.641399,435.487134 479.211734,431.815241 C483.78207,428.143348 489.367951,425.23322 495.969547,423.084772 C502.571142,420.936324 510.129661,419.862116 518.645328,419.862116 C526.301616,419.862116 533.430451,420.799607 540.032047,422.674616 C546.633642,424.549625 552.356241,427.323035 557.200016,430.994928 C562.04379,434.666822 565.832814,439.295682 568.567203,444.881647 C571.301592,450.467613 572.668766,456.932392 572.668766,464.276178 L572.668766,518.651178 C572.668766,525.448087 573.098449,531.073031 573.957828,535.526178 C574.817207,539.979326 576.067195,543.807412 577.707828,547.010553 L577.707828,549.002741 L544.660953,549.002741 Z M513.606266,526.151178 C516.887532,526.151178 519.934377,525.760557 522.746891,524.979303 C525.559405,524.19805 528.098442,523.182435 530.364078,521.932428 C532.629714,520.682422 534.58282,519.256655 536.223453,517.655085 C537.864086,516.053514 539.153136,514.432437 540.090641,512.791803 L540.090641,490.994928 L523.450016,490.994928 C518.371865,490.994928 514.035971,491.483205 510.442203,492.459772 C506.848435,493.43634 503.918777,494.803513 501.653141,496.561335 C499.387504,498.319156 497.707834,500.42851 496.614078,502.88946 C495.520323,505.350409 494.973453,508.026164 494.973453,510.916803 C494.973453,515.291825 496.516406,518.924601 499.602359,521.815241 C502.688312,524.70588 507.356234,526.151178 513.606266,526.151178 Z M665.598453,525.330866 C668.801594,525.330866 671.848439,524.862121 674.739078,523.924616 C677.629718,522.987111 680.168755,521.659 682.356266,519.940241 C684.543777,518.221482 686.242978,516.151191 687.453922,513.729303 C688.664865,511.307416 689.192204,508.612131 689.035953,505.643366 L719.739078,505.643366 C719.895329,512.205899 718.547686,518.299588 715.696109,523.924616 C712.844533,529.549644 708.957853,534.393346 704.035953,538.455866 C699.114053,542.518386 693.391454,545.701948 686.867984,548.006647 C680.344514,550.311346 673.450052,551.463678 666.184391,551.463678 C656.340591,551.463678 647.707865,549.803539 640.285953,546.48321 C632.864041,543.162881 626.672697,538.612145 621.711734,532.830866 C616.750772,527.049587 613.00081,520.272311 610.461734,512.498835 C607.922659,504.725358 606.653141,496.385598 606.653141,487.479303 L606.653141,483.963678 C606.653141,475.057384 607.903128,466.717624 610.403141,458.944147 C612.903153,451.170671 616.653116,444.393395 621.653141,438.612116 C626.653166,432.830837 632.84451,428.26057 640.227359,424.901178 C647.610209,421.541787 656.184342,419.862116 665.950016,419.862116 C673.762555,419.862116 680.989045,421.033979 687.629703,423.377741 C694.270361,425.721503 699.99296,429.022251 704.797672,433.280085 C709.602383,437.537918 713.332815,442.694117 715.989078,448.748835 C718.645341,454.803552 719.895329,461.580828 719.739078,469.080866 L689.035953,469.080866 C689.192204,465.95585 688.723459,462.98713 687.629703,460.174616 C686.535948,457.362102 684.934401,454.940251 682.825016,452.908991 C680.71563,450.877731 678.176593,449.256653 675.207828,448.04571 C672.239063,446.834766 668.996908,446.229303 665.481266,446.229303 C660.32499,446.229303 656.06722,447.28398 652.707828,449.393366 C649.348436,451.502751 646.672682,454.315223 644.680484,457.830866 C642.688287,461.346509 641.282051,465.369906 640.461734,469.901178 C639.641418,474.432451 639.231266,479.119904 639.231266,483.963678 L639.231266,487.479303 C639.231266,492.401203 639.621887,497.147249 640.403141,501.717585 C641.184394,506.28792 642.571099,510.311317 644.563297,513.787897 C646.555494,517.264477 649.25078,520.057418 652.649234,522.166803 C656.047689,524.276189 660.364052,525.330866 665.598453,525.330866 Z M801.184391,496.619928 L786.418766,510.330866 L786.418766,549.002741 L753.840641,549.002741 L753.840641,369.002741 L786.418766,369.002741 L786.418766,471.893366 L796.262516,460.643366 L831.301578,422.205866 L870.442203,422.205866 L822.629703,475.057428 L877.121891,549.002741 L837.160953,549.002741 L801.184391,496.619928 Z M979.309391,514.198053 C979.309391,512.244919 978.860176,510.526186 977.961734,509.041803 C977.063292,507.557421 975.461746,506.170716 973.157047,504.881647 C970.852348,503.592578 967.785972,502.401184 963.957828,501.307428 C960.129684,500.213673 955.285982,499.119934 949.426578,498.026178 C942.004666,496.541796 935.22739,494.686346 929.094547,492.459772 C922.961704,490.233199 917.70785,487.537913 913.332828,484.373835 C908.957806,481.209756 905.539872,477.557449 903.078922,473.416803 C900.617972,469.276158 899.387516,464.51058 899.387516,459.119928 C899.387516,453.885527 900.637503,448.885577 903.137516,444.119928 C905.637528,439.35428 909.231242,435.174634 913.918766,431.580866 C918.606289,427.987098 924.309357,425.135564 931.028141,423.026178 C937.746924,420.916793 945.324973,419.862116 953.762516,419.862116 C962.590685,419.862116 970.520293,420.897262 977.551578,422.967585 C984.582863,425.037908 990.539835,427.889442 995.422672,431.522272 C1000.30551,435.155103 1004.03594,439.471466 1006.61408,444.471491 C1009.19222,449.471516 1010.48127,454.901149 1010.48127,460.760553 L977.903141,460.760553 C977.903141,455.838654 975.910973,451.717601 971.926578,448.397272 C967.942183,445.076943 961.887556,443.416803 953.762516,443.416803 C946.184353,443.416803 940.461754,444.783977 936.594547,447.518366 C932.72734,450.252755 930.793766,453.612096 930.793766,457.596491 C930.793766,459.4715 931.184387,461.209764 931.965641,462.811335 C932.746894,464.412905 934.133599,465.858203 936.125797,467.147272 C938.117994,468.436341 940.832811,469.608204 944.270328,470.662897 C947.707845,471.71759 952.082802,472.63555 957.395328,473.416803 C965.051616,474.66681 972.16092,476.268356 978.723453,478.221491 C985.285986,480.174626 990.949992,482.694132 995.715641,485.780085 C1000.48129,488.866038 1004.21172,492.616 1006.90705,497.030085 C1009.60237,501.444169 1010.95002,506.698023 1010.95002,512.791803 C1010.95002,518.416832 1009.60237,523.592561 1006.90705,528.319147 C1004.21172,533.045733 1000.38363,537.127724 995.422672,540.565241 C990.46171,544.002758 984.465676,546.678513 977.434391,548.592585 C970.403105,550.506657 962.551621,551.463678 953.879703,551.463678 C944.348405,551.463678 935.930521,550.213691 928.625797,547.713678 C921.321073,545.213666 915.207853,541.95198 910.285953,537.928522 C905.364053,533.905065 901.633622,529.334798 899.094547,524.217585 C896.555472,519.100372 895.285953,513.963704 895.285953,508.807428 L926.340641,508.807428 C926.575017,512.244946 927.512507,515.194135 929.153141,517.655085 C930.793774,520.116034 932.903128,522.108202 935.481266,523.631647 C938.059403,525.155092 941.008593,526.268362 944.328922,526.971491 C947.649251,527.674619 951.067186,528.026178 954.582828,528.026178 C962.629743,528.026178 968.762494,526.737129 972.981266,524.158991 C977.200037,521.580853 979.309391,518.260574 979.309391,514.198053 Z M1037.08283,484.432428 C1037.08283,475.213632 1038.41094,466.678561 1041.0672,458.82696 C1043.72347,450.975358 1047.61015,444.15902 1052.72736,438.377741 C1057.84457,432.596462 1064.09451,428.065257 1071.47736,424.783991 C1078.86021,421.502725 1087.31716,419.862116 1096.84845,419.862116 C1106.37975,419.862116 1114.85623,421.502725 1122.27814,424.783991 C1129.70005,428.065257 1135.96952,432.596462 1141.08673,438.377741 C1146.20395,444.15902 1150.09063,450.975358 1152.74689,458.82696 C1155.40315,466.678561 1156.73127,475.213632 1156.73127,484.432428 L1156.73127,486.893366 C1156.73127,496.190287 1155.40315,504.76442 1152.74689,512.616022 C1150.09063,520.467624 1146.22348,527.283962 1141.14533,533.065241 C1136.06718,538.84652 1129.81724,543.358193 1122.39533,546.600397 C1114.97342,549.842601 1106.536,551.463678 1097.08283,551.463678 C1087.55153,551.463678 1079.05552,549.842601 1071.59455,546.600397 C1064.13357,543.358193 1057.84457,538.84652 1052.72736,533.065241 C1047.61015,527.283962 1043.72347,520.467624 1041.0672,512.616022 C1038.41094,504.76442 1037.08283,496.190287 1037.08283,486.893366 L1037.08283,484.432428 Z M1069.66095,486.893366 C1069.66095,492.205892 1070.16876,497.186311 1071.18439,501.834772 C1072.20002,506.483233 1073.80157,510.545692 1075.98908,514.022272 C1078.17659,517.498852 1081.00859,520.252731 1084.48517,522.283991 C1087.96175,524.315251 1092.16093,525.330866 1097.08283,525.330866 C1101.84848,525.330866 1105.95,524.315251 1109.38752,522.283991 C1112.82503,520.252731 1115.61797,517.498852 1117.76642,514.022272 C1119.91487,510.545692 1121.49689,506.483233 1122.51252,501.834772 C1123.52815,497.186311 1124.03595,492.205892 1124.03595,486.893366 L1124.03595,484.432428 C1124.03595,479.276153 1123.52815,474.393389 1122.51252,469.783991 C1121.49689,465.174593 1119.91487,461.112134 1117.76642,457.596491 C1115.61797,454.080848 1112.82503,451.307439 1109.38752,449.276178 C1105.95,447.244918 1101.77035,446.229303 1096.84845,446.229303 C1092.00468,446.229303 1087.8641,447.244918 1084.42658,449.276178 C1080.98906,451.307439 1078.17659,454.080848 1075.98908,457.596491 C1073.80157,461.112134 1072.20002,465.174593 1071.18439,469.783991 C1070.16876,474.393389 1069.66095,479.276153 1069.66095,484.432428 L1069.66095,486.893366 Z M1215.09064,422.205866 L1217.08283,439.783991 C1221.6141,433.455834 1227.12186,428.55354 1233.60627,425.07696 C1240.09067,421.60038 1247.2781,419.862116 1255.16877,419.862116 C1261.57505,419.862116 1267.43436,420.799607 1272.74689,422.674616 C1278.05942,424.549625 1282.64922,427.537877 1286.51642,431.63946 C1290.38363,435.741043 1293.39141,441.014427 1295.53986,447.459772 C1297.68831,453.905117 1298.76252,461.73707 1298.76252,470.955866 L1298.76252,549.002741 L1266.18439,549.002741 L1266.18439,471.424616 C1266.18439,466.424591 1265.61799,462.303538 1264.48517,459.061335 C1263.35235,455.819131 1261.73128,453.260563 1259.62189,451.385553 C1257.51251,449.510544 1254.97347,448.201963 1252.0047,447.459772 C1249.03594,446.717581 1245.6766,446.346491 1241.92658,446.346491 C1236.37968,446.346491 1231.65316,447.459761 1227.74689,449.686335 C1223.84062,451.912908 1220.67659,454.979284 1218.2547,458.885553 L1218.2547,549.002741 L1185.55939,549.002741 L1185.55939,422.205866 L1215.09064,422.205866 Z" id="Justin-Jackson"></path>
        </g>
    </g>
</svg>