<svg xmlns="http://www.w3.org/2000/svg" viewBox="0 0 24 24"><defs><style>.a{fill:none;stroke:currentColor;stroke-linecap:round;stroke-linejoin:round;}</style></defs><title>video-game-logo-twitch</title><path class="a" d="M.5,5.777a1,1,0,0,1,.143-.515L3.354.743A.5.5,0,0,1,3.783.5H23a.5.5,0,0,1,.5.5V13.586a1,1,0,0,1-.293.707l-3.914,3.914a1,1,0,0,1-.707.293H11.427a1,1,0,0,0-.722.308L6.361,23.346A.5.5,0,0,1,5.5,23V19a.5.5,0,0,0-.5-.5H1A.5.5,0,0,1,.5,18Z"/><path class="a" d="M6,2.5a.5.5,0,0,0-.5.5V15a.5.5,0,0,0,.5.5H7.5V18L10,15.5h8.086a1,1,0,0,0,.707-.293l2.414-2.414a1,1,0,0,0,.293-.707V3a.5.5,0,0,0-.5-.5Z"/><line class="a" x1="11.5" y1="6.5" x2="11.5" y2="10.5"/><line class="a" x1="16.5" y1="6.5" x2="16.5" y2="10.5"/></svg>