<svg xmlns="http://www.w3.org/2000/svg" viewBox="0 0 24 24"><defs><style>.a{fill:none;stroke:currentColor;stroke-linecap:round;stroke-linejoin:round;stroke-width:1.5px;}</style></defs><title>video-game-logo-twitch</title><path class="a" d="M.75,5.912a.98.98,0,0,1,.139-.5L3.542.987A.491.491,0,0,1,3.962.75h18.8a.489.489,0,0,1,.489.489v12.7a.979.979,0,0,1-.287.692l-3.829,3.829a.978.978,0,0,1-.691.286h-7a.977.977,0,0,0-.707.3L6.484,23.1a.489.489,0,0,1-.843-.338V19.238a.489.489,0,0,0-.489-.49H1.239a.489.489,0,0,1-.489-.489Z"/><path class="a" d="M6.489,3.75A.489.489,0,0,0,6,4.239v9.522a.489.489,0,0,0,.489.489H7.5v3l2.543-3H16.91a.979.979,0,0,0,.692-.287L19.963,11.6a.979.979,0,0,0,.287-.692V4.239a.489.489,0,0,0-.489-.489Z"/><line class="a" x1="11.25" y1="6.75" x2="11.25" y2="10.5"/><line class="a" x1="15.75" y1="6.75" x2="15.75" y2="10.5"/></svg>