<svg xmlns="http://www.w3.org/2000/svg" width="140" height="140" viewbox="0 0 140 140" preserveAspectRatio="none"><rect x="0" y="0" width="100%" height="100%" fill="rgb(45, 161, 53)" /><polyline points="7.7,0,15.633333333333,0,23.333333333333,7.7,23.333333333333,15.633333333333,15.633333333333,23.333333333333,7.7,23.333333333333,0,15.633333333333,0,7.7,7.7,0" fill="#ddd" fill-opacity="0.054666666666667" stroke="#000" stroke-opacity="0.02" transform="translate(0, 0)" /><polyline points="7.7,0,15.633333333333,0,23.333333333333,7.7,23.333333333333,15.633333333333,15.633333333333,23.333333333333,7.7,23.333333333333,0,15.633333333333,0,7.7,7.7,0" fill="#ddd" fill-opacity="0.14133333333333" stroke="#000" stroke-opacity="0.02" transform="translate(23.333333333333, 0)" /><polyline points="7.7,0,15.633333333333,0,23.333333333333,7.7,23.333333333333,15.633333333333,15.633333333333,23.333333333333,7.7,23.333333333333,0,15.633333333333,0,7.7,7.7,0" fill="#ddd" fill-opacity="0.037333333333333" stroke="#000" stroke-opacity="0.02" transform="translate(46.666666666667, 0)" /><polyline points="7.7,0,15.633333333333,0,23.333333333333,7.7,23.333333333333,15.633333333333,15.633333333333,23.333333333333,7.7,23.333333333333,0,15.633333333333,0,7.7,7.7,0" fill="#222" fill-opacity="0.080666666666667" stroke="#000" stroke-opacity="0.02" transform="translate(70, 0)" /><polyline points="7.7,0,15.633333333333,0,23.333333333333,7.7,23.333333333333,15.633333333333,15.633333333333,23.333333333333,7.7,23.333333333333,0,15.633333333333,0,7.7,7.7,0" fill="#ddd" fill-opacity="0.089333333333333" stroke="#000" stroke-opacity="0.02" transform="translate(93.333333333333, 0)" /><polyline points="7.7,0,15.633333333333,0,23.333333333333,7.7,23.333333333333,15.633333333333,15.633333333333,23.333333333333,7.7,23.333333333333,0,15.633333333333,0,7.7,7.7,0" fill="#ddd" fill-opacity="0.037333333333333" stroke="#000" stroke-opacity="0.02" transform="translate(116.66666666667, 0)" /><polyline points="7.7,0,15.633333333333,0,23.333333333333,7.7,23.333333333333,15.633333333333,15.633333333333,23.333333333333,7.7,23.333333333333,0,15.633333333333,0,7.7,7.7,0" fill="#222" fill-opacity="0.028666666666667" stroke="#000" stroke-opacity="0.02" transform="translate(0, 23.333333333333)" /><polyline points="7.7,0,15.633333333333,0,23.333333333333,7.7,23.333333333333,15.633333333333,15.633333333333,23.333333333333,7.7,23.333333333333,0,15.633333333333,0,7.7,7.7,0" fill="#ddd" fill-opacity="0.037333333333333" stroke="#000" stroke-opacity="0.02" transform="translate(23.333333333333, 23.333333333333)" /><polyline points="7.7,0,15.633333333333,0,23.333333333333,7.7,23.333333333333,15.633333333333,15.633333333333,23.333333333333,7.7,23.333333333333,0,15.633333333333,0,7.7,7.7,0" fill="#222" fill-opacity="0.080666666666667" stroke="#000" stroke-opacity="0.02" transform="translate(46.666666666667, 23.333333333333)" /><polyline points="7.7,0,15.633333333333,0,23.333333333333,7.7,23.333333333333,15.633333333333,15.633333333333,23.333333333333,7.7,23.333333333333,0,15.633333333333,0,7.7,7.7,0" fill="#222" fill-opacity="0.11533333333333" stroke="#000" stroke-opacity="0.02" transform="translate(70, 23.333333333333)" /><polyline points="7.7,0,15.633333333333,0,23.333333333333,7.7,23.333333333333,15.633333333333,15.633333333333,23.333333333333,7.7,23.333333333333,0,15.633333333333,0,7.7,7.7,0" fill="#222" fill-opacity="0.046" stroke="#000" stroke-opacity="0.02" transform="translate(93.333333333333, 23.333333333333)" /><polyline points="7.7,0,15.633333333333,0,23.333333333333,7.7,23.333333333333,15.633333333333,15.633333333333,23.333333333333,7.7,23.333333333333,0,15.633333333333,0,7.7,7.7,0" fill="#222" fill-opacity="0.11533333333333" stroke="#000" stroke-opacity="0.02" transform="translate(116.66666666667, 23.333333333333)" /><polyline points="7.7,0,15.633333333333,0,23.333333333333,7.7,23.333333333333,15.633333333333,15.633333333333,23.333333333333,7.7,23.333333333333,0,15.633333333333,0,7.7,7.7,0" fill="#ddd" fill-opacity="0.124" stroke="#000" stroke-opacity="0.02" transform="translate(0, 46.666666666667)" /><polyline points="7.7,0,15.633333333333,0,23.333333333333,7.7,23.333333333333,15.633333333333,15.633333333333,23.333333333333,7.7,23.333333333333,0,15.633333333333,0,7.7,7.7,0" fill="#222" fill-opacity="0.098" stroke="#000" stroke-opacity="0.02" transform="translate(23.333333333333, 46.666666666667)" /><polyline points="7.7,0,15.633333333333,0,23.333333333333,7.7,23.333333333333,15.633333333333,15.633333333333,23.333333333333,7.7,23.333333333333,0,15.633333333333,0,7.7,7.7,0" fill="#ddd" fill-opacity="0.10666666666667" stroke="#000" stroke-opacity="0.02" transform="translate(46.666666666667, 46.666666666667)" /><polyline points="7.7,0,15.633333333333,0,23.333333333333,7.7,23.333333333333,15.633333333333,15.633333333333,23.333333333333,7.7,23.333333333333,0,15.633333333333,0,7.7,7.7,0" fill="#ddd" fill-opacity="0.089333333333333" stroke="#000" stroke-opacity="0.02" transform="translate(70, 46.666666666667)" /><polyline points="7.7,0,15.633333333333,0,23.333333333333,7.7,23.333333333333,15.633333333333,15.633333333333,23.333333333333,7.7,23.333333333333,0,15.633333333333,0,7.7,7.7,0" fill="#222" fill-opacity="0.046" stroke="#000" stroke-opacity="0.02" transform="translate(93.333333333333, 46.666666666667)" /><polyline points="7.7,0,15.633333333333,0,23.333333333333,7.7,23.333333333333,15.633333333333,15.633333333333,23.333333333333,7.7,23.333333333333,0,15.633333333333,0,7.7,7.7,0" fill="#ddd" fill-opacity="0.14133333333333" stroke="#000" stroke-opacity="0.02" transform="translate(116.66666666667, 46.666666666667)" /><polyline points="7.7,0,15.633333333333,0,23.333333333333,7.7,23.333333333333,15.633333333333,15.633333333333,23.333333333333,7.7,23.333333333333,0,15.633333333333,0,7.7,7.7,0" fill="#222" fill-opacity="0.080666666666667" stroke="#000" stroke-opacity="0.02" transform="translate(0, 70)" /><polyline points="7.7,0,15.633333333333,0,23.333333333333,7.7,23.333333333333,15.633333333333,15.633333333333,23.333333333333,7.7,23.333333333333,0,15.633333333333,0,7.7,7.7,0" fill="#ddd" fill-opacity="0.124" stroke="#000" stroke-opacity="0.02" transform="translate(23.333333333333, 70)" /><polyline points="7.7,0,15.633333333333,0,23.333333333333,7.7,23.333333333333,15.633333333333,15.633333333333,23.333333333333,7.7,23.333333333333,0,15.633333333333,0,7.7,7.7,0" fill="#ddd" fill-opacity="0.02" stroke="#000" stroke-opacity="0.02" transform="translate(46.666666666667, 70)" /><polyline points="7.7,0,15.633333333333,0,23.333333333333,7.7,23.333333333333,15.633333333333,15.633333333333,23.333333333333,7.7,23.333333333333,0,15.633333333333,0,7.7,7.7,0" fill="#222" fill-opacity="0.13266666666667" stroke="#000" stroke-opacity="0.02" transform="translate(70, 70)" /><polyline points="7.7,0,15.633333333333,0,23.333333333333,7.7,23.333333333333,15.633333333333,15.633333333333,23.333333333333,7.7,23.333333333333,0,15.633333333333,0,7.7,7.7,0" fill="#222" fill-opacity="0.046" stroke="#000" stroke-opacity="0.02" transform="translate(93.333333333333, 70)" /><polyline points="7.7,0,15.633333333333,0,23.333333333333,7.7,23.333333333333,15.633333333333,15.633333333333,23.333333333333,7.7,23.333333333333,0,15.633333333333,0,7.7,7.7,0" fill="#222" fill-opacity="0.098" stroke="#000" stroke-opacity="0.02" transform="translate(116.66666666667, 70)" /><polyline points="7.7,0,15.633333333333,0,23.333333333333,7.7,23.333333333333,15.633333333333,15.633333333333,23.333333333333,7.7,23.333333333333,0,15.633333333333,0,7.7,7.7,0" fill="#ddd" fill-opacity="0.02" stroke="#000" stroke-opacity="0.02" transform="translate(0, 93.333333333333)" /><polyline points="7.7,0,15.633333333333,0,23.333333333333,7.7,23.333333333333,15.633333333333,15.633333333333,23.333333333333,7.7,23.333333333333,0,15.633333333333,0,7.7,7.7,0" fill="#222" fill-opacity="0.15" stroke="#000" stroke-opacity="0.02" transform="translate(23.333333333333, 93.333333333333)" /><polyline points="7.7,0,15.633333333333,0,23.333333333333,7.7,23.333333333333,15.633333333333,15.633333333333,23.333333333333,7.7,23.333333333333,0,15.633333333333,0,7.7,7.7,0" fill="#ddd" fill-opacity="0.054666666666667" stroke="#000" stroke-opacity="0.02" transform="translate(46.666666666667, 93.333333333333)" /><polyline points="7.7,0,15.633333333333,0,23.333333333333,7.7,23.333333333333,15.633333333333,15.633333333333,23.333333333333,7.7,23.333333333333,0,15.633333333333,0,7.7,7.7,0" fill="#222" fill-opacity="0.15" stroke="#000" stroke-opacity="0.02" transform="translate(70, 93.333333333333)" /><polyline points="7.7,0,15.633333333333,0,23.333333333333,7.7,23.333333333333,15.633333333333,15.633333333333,23.333333333333,7.7,23.333333333333,0,15.633333333333,0,7.7,7.7,0" fill="#ddd" fill-opacity="0.054666666666667" stroke="#000" stroke-opacity="0.02" transform="translate(93.333333333333, 93.333333333333)" /><polyline points="7.7,0,15.633333333333,0,23.333333333333,7.7,23.333333333333,15.633333333333,15.633333333333,23.333333333333,7.7,23.333333333333,0,15.633333333333,0,7.7,7.7,0" fill="#ddd" fill-opacity="0.054666666666667" stroke="#000" stroke-opacity="0.02" transform="translate(116.66666666667, 93.333333333333)" /><polyline points="7.7,0,15.633333333333,0,23.333333333333,7.7,23.333333333333,15.633333333333,15.633333333333,23.333333333333,7.7,23.333333333333,0,15.633333333333,0,7.7,7.7,0" fill="#222" fill-opacity="0.046" stroke="#000" stroke-opacity="0.02" transform="translate(0, 116.66666666667)" /><polyline points="7.7,0,15.633333333333,0,23.333333333333,7.7,23.333333333333,15.633333333333,15.633333333333,23.333333333333,7.7,23.333333333333,0,15.633333333333,0,7.7,7.7,0" fill="#222" fill-opacity="0.080666666666667" stroke="#000" stroke-opacity="0.02" transform="translate(23.333333333333, 116.66666666667)" /><polyline points="7.7,0,15.633333333333,0,23.333333333333,7.7,23.333333333333,15.633333333333,15.633333333333,23.333333333333,7.7,23.333333333333,0,15.633333333333,0,7.7,7.7,0" fill="#ddd" fill-opacity="0.14133333333333" stroke="#000" stroke-opacity="0.02" transform="translate(46.666666666667, 116.66666666667)" /><polyline points="7.7,0,15.633333333333,0,23.333333333333,7.7,23.333333333333,15.633333333333,15.633333333333,23.333333333333,7.7,23.333333333333,0,15.633333333333,0,7.7,7.7,0" fill="#ddd" fill-opacity="0.02" stroke="#000" stroke-opacity="0.02" transform="translate(70, 116.66666666667)" /><polyline points="7.7,0,15.633333333333,0,23.333333333333,7.7,23.333333333333,15.633333333333,15.633333333333,23.333333333333,7.7,23.333333333333,0,15.633333333333,0,7.7,7.7,0" fill="#222" fill-opacity="0.063333333333333" stroke="#000" stroke-opacity="0.02" transform="translate(93.333333333333, 116.66666666667)" /><polyline points="7.7,0,15.633333333333,0,23.333333333333,7.7,23.333333333333,15.633333333333,15.633333333333,23.333333333333,7.7,23.333333333333,0,15.633333333333,0,7.7,7.7,0" fill="#222" fill-opacity="0.13266666666667" stroke="#000" stroke-opacity="0.02" transform="translate(116.66666666667, 116.66666666667)" /></svg>